<svg width="900" height="42" viewBox="0 0 900 42" fill="none" xmlns="http://www.w3.org/2000/svg" role="img" aria-label="Section divider with a small cat">
  <line x1="0" y1="24" x2="386" y2="24" stroke="#30363D" stroke-width="1.5" stroke-linecap="round"/>
  <line x1="514" y1="24" x2="900" y2="24" stroke="#30363D" stroke-width="1.5" stroke-linecap="round"/>
  <g transform="translate(398 3)">
    <path d="M28 21C28 9 37 2 50 2C63 2 72 9 72 21V25H28V21Z" fill="#F0F6FC" stroke="#30363D" stroke-width="1.5"/>
    <path d="M35 11L39 2L47 9" fill="#F0F6FC"/>
    <path d="M35 11L39 2L47 9" stroke="#30363D" stroke-width="1.5" stroke-linejoin="round"/>
    <path d="M65 11L61 2L53 9" fill="#F0F6FC"/>
    <path d="M65 11L61 2L53 9" stroke="#30363D" stroke-width="1.5" stroke-linejoin="round"/>
    <circle cx="43" cy="18" r="2" fill="#24292F"/>
    <circle cx="57" cy="18" r="2" fill="#24292F"/>
    <path d="M50 21L47 24H53L50 21Z" fill="#F78166"/>
    <path d="M32 29H68" stroke="#30363D" stroke-width="1.5" stroke-linecap="round"/>
    <path d="M38 33H62" stroke="#30363D" stroke-width="1.5" stroke-linecap="round" opacity=".65"/>
  </g>
</svg>
